<svg width="50" height="48" viewBox="0 0 50 48" fill="none" xmlns="http://www.w3.org/2000/svg">
<path d="M43.8281 11.3812C40.6836 11.3812 38.1445 8.94371 38.1445 5.92496C38.1445 5.43746 38.2227 4.93121 38.3594 4.46246H24.3164C23.7695 4.46246 23.3203 4.89371 23.3203 5.41871V35.7562C23.3203 36.2812 23.7695 36.7125 24.3164 36.7125H45.8984C46.4453 36.7125 46.8945 36.2812 46.8945 35.7562V10.5187C45.9766 11.0812 44.9219 11.3812 43.8281 11.3812Z" fill="#EDF4FC"/>
<path d="M23.3203 6.35629H23.1055C22.3438 6.35629 21.6016 6.56254 20.9375 6.93754C20.1758 5.70004 18.7891 4.95004 17.3047 4.95004H15.1367C10.918 4.96879 7.5 8.25004 7.48047 12.3V15.5813C8.16406 15.0563 9.02344 14.8313 9.88281 14.9625V14.625C9.88281 14.4188 10.0586 14.25 10.2734 14.25H10.3516C11.6992 14.5125 15.6836 14.9813 18.3984 11.7188C18.5352 11.55 18.7891 11.5313 18.9648 11.6625C18.9844 11.6625 18.9844 11.6813 19.0039 11.6813C19.5508 12.2063 20.8984 13.1813 23.3203 13.4625V6.35629Z" fill="#818182"/>
<path d="M23.3203 13.4625C20.8789 13.1813 19.5508 12.2063 19.0039 11.6813C18.8477 11.5313 18.5938 11.5313 18.4375 11.6813C18.418 11.7 18.418 11.7 18.418 11.7188C15.7031 14.9813 11.7187 14.5313 10.3711 14.25C10.1562 14.2125 9.94141 14.3438 9.90234 14.55V20.3438C9.92188 24.2625 13.2227 27.45 17.3047 27.45C19.6875 27.45 21.9336 26.325 23.3203 24.4688V13.4625Z" fill="#F9D0B4"/>
<path d="M40.2344 39.8063H39.8047V39.375C39.8047 39.0562 39.5312 38.8125 39.2187 38.8125C38.8867 38.8125 38.6328 39.075 38.6328 39.375V39.7875H38.2031C37.8711 39.7875 37.6172 40.05 37.6172 40.35C37.6172 40.6687 37.8906 40.9125 38.2031 40.9125H38.6328V41.325C38.6328 41.6437 38.9062 41.8875 39.2187 41.8875C39.5508 41.8875 39.8047 41.625 39.8047 41.325V40.9125H40.2344C40.5664 40.9125 40.8203 40.65 40.8203 40.35C40.8398 40.05 40.5664 39.8063 40.2344 39.8063Z" fill="#70D6F9"/>
<path d="M10.9766 1.98754C11.3217 1.98754 11.6016 1.71891 11.6016 1.38754C11.6016 1.05617 11.3217 0.787537 10.9766 0.787537C10.6314 0.787537 10.3516 1.05617 10.3516 1.38754C10.3516 1.71891 10.6314 1.98754 10.9766 1.98754Z" fill="#70D6F9"/>
<path d="M47.1094 40.8C47.4546 40.8 47.7344 40.5314 47.7344 40.2C47.7344 39.8687 47.4546 39.6 47.1094 39.6C46.7642 39.6 46.4844 39.8687 46.4844 40.2C46.4844 40.5314 46.7642 40.8 47.1094 40.8Z" fill="#F5C84C"/>
<path d="M37.1484 44.925C37.4936 44.925 37.7734 44.6564 37.7734 44.325C37.7734 43.9937 37.4936 43.725 37.1484 43.725C36.8033 43.725 36.5234 43.9937 36.5234 44.325C36.5234 44.6564 36.8033 44.925 37.1484 44.925Z" fill="#87D147"/>
<path d="M8.65234 5.04381C7.87109 4.91256 7.26563 4.33131 7.10938 3.60006C7.10938 3.58131 7.08984 3.56256 7.07031 3.58131C7.05078 3.58131 7.05078 3.60006 7.05078 3.60006C6.89453 4.35006 6.28906 4.91256 5.50781 5.04381C5.48828 5.04381 5.46875 5.06256 5.46875 5.08131C5.46875 5.10006 5.48828 5.10006 5.50781 5.11881C6.28906 5.25006 6.89453 5.83131 7.05078 6.56256C7.05078 6.58131 7.07031 6.60006 7.08984 6.58131C7.10937 6.58131 7.10938 6.56256 7.10938 6.56256C7.26563 5.81256 7.87109 5.25006 8.65234 5.11881C8.67187 5.11881 8.69141 5.10006 8.69141 5.08131C8.69141 5.06256 8.67187 5.04381 8.65234 5.04381Z" fill="#F5C84C"/>
<path d="M9.14062 25.7625C8.61328 25.6687 8.18359 25.275 8.06641 24.7688C8.06641 24.75 8.04688 24.75 8.04688 24.75C8.02734 24.75 8.02734 24.75 8.02734 24.7688C7.91016 25.275 7.5 25.6687 6.95312 25.7625C6.93359 25.7625 6.93359 25.7812 6.93359 25.7812C6.93359 25.8 6.93359 25.8 6.95312 25.8C7.48047 25.8938 7.91016 26.2875 8.02734 26.7937C8.02734 26.8125 8.04688 26.8125 8.04688 26.8125C8.06641 26.8125 8.06641 26.8125 8.06641 26.7937C8.18359 26.2875 8.59375 25.8938 9.14062 25.8C9.16016 25.8 9.14062 25.7812 9.14062 25.7625C9.14062 25.7812 9.14062 25.7812 9.14062 25.7625Z" fill="#FC657E"/>
<path d="M9.90247 20.3438V14.9625C8.22278 14.7 6.62122 15.8063 6.34778 17.4188C6.07434 19.0313 7.22668 20.5688 8.90637 20.8313C9.2384 20.8875 9.58997 20.8875 9.922 20.8313C9.90247 20.6625 9.90247 20.5125 9.90247 20.3438Z" fill="#F9D0B4"/>
<path d="M33.3402 36.6938H24.3168C23.7699 36.6938 23.3207 36.2625 23.3207 35.7375V30.075L22.2856 29.5875C21.4652 29.1938 20.9574 28.4063 20.9574 27.525V26.5125C19.8441 27.1313 18.5941 27.45 17.3051 27.45C16.016 27.45 14.766 27.1313 13.6527 26.5125V27.525C13.6527 28.4063 13.1449 29.1938 12.3246 29.5875L10.5863 30.4125C10.1566 30.6188 9.70743 30.7688 9.23868 30.8813L3.76993 32.1938C2.4418 32.5125 1.48477 33.6375 1.40665 34.95L0.488678 46.1438C0.430084 46.8375 0.976959 47.4563 1.69962 47.5125H32.8129C33.5356 47.5125 34.141 46.95 34.141 46.2375V46.1438L33.3402 36.6938Z" fill="#F7F7F7"/>
<path d="M23.3203 30.0938L22.2852 29.6062C21.4648 29.2125 20.957 28.425 20.957 27.5437V26.5312C19.8438 27.15 18.5937 27.4688 17.3047 27.4688C16.0156 27.4688 14.7656 27.15 13.6523 26.5312V27.5437C13.6523 28.425 13.1445 29.2125 12.3242 29.6062L11.0547 30.2063C12.4023 32.2688 14.7656 33.525 17.3047 33.525C19.6875 33.525 21.9336 32.4 23.3203 30.5437V30.0938Z" fill="#F9D0B4"/>
<path d="M17.3051 24.0563C15.9574 24.0563 14.7074 23.4001 14.0043 22.3126C13.8676 22.0876 13.9262 21.8063 14.1605 21.6563C14.3949 21.5063 14.6879 21.5813 14.8441 21.8063C15.7035 23.1188 17.5004 23.5126 18.8676 22.6876C19.2387 22.4626 19.5512 22.1626 19.7855 21.8063C19.9222 21.5813 20.2347 21.5251 20.4691 21.6563C20.7035 21.7876 20.7621 22.0876 20.6254 22.3126C19.9027 23.3813 18.6527 24.0563 17.3051 24.0563Z" fill="black"/>
<path d="M14.1211 19.05C14.6065 19.05 15 18.6722 15 18.2062C15 17.7402 14.6065 17.3625 14.1211 17.3625C13.6357 17.3625 13.2422 17.7402 13.2422 18.2062C13.2422 18.6722 13.6357 19.05 14.1211 19.05Z" fill="black"/>
<path d="M20.6445 19.05C21.1299 19.05 21.5234 18.6722 21.5234 18.2062C21.5234 17.7402 21.1299 17.3625 20.6445 17.3625C20.1591 17.3625 19.7656 17.7402 19.7656 18.2062C19.7656 18.6722 20.1591 19.05 20.6445 19.05Z" fill="black"/>
<path d="M9.41406 21.3375C7.44141 21.3375 5.82031 19.8187 5.82031 17.9062C5.82031 15.9937 7.40234 14.4562 9.39453 14.4562C9.58984 14.4562 9.78516 14.475 9.98047 14.4937C10.2148 14.5312 10.3906 14.7187 10.3906 14.9625V20.3437C10.3906 20.475 10.3906 20.625 10.4102 20.7937C10.4297 21.0375 10.2539 21.2437 10 21.2812C9.80469 21.3187 9.60938 21.3375 9.41406 21.3375ZM9.41406 15.3937C7.96875 15.3937 6.81641 16.5187 6.81641 17.8875C6.81641 19.275 7.98828 20.3812 9.41406 20.3812V20.325V15.3937ZM32.8125 48H1.81641C0.820313 48 0 47.2312 0 46.2562V46.125L0.917969 34.9312C0.996094 33.4125 2.10938 32.1375 3.65234 31.7625L9.12109 30.45C9.55078 30.3375 9.96094 30.2062 10.3711 30.0187L12.1094 29.1937C12.7539 28.8937 13.1836 28.2562 13.1641 27.5625V26.55C13.1641 26.2875 13.3789 26.0812 13.6523 26.0812C13.7305 26.0812 13.8281 26.1 13.8867 26.1375C15.9961 27.3 18.5938 27.3 20.7031 26.1375C20.9375 26.0062 21.2305 26.0812 21.3672 26.3062C21.4062 26.3812 21.4258 26.4562 21.4258 26.5312V27.5437C21.4258 28.2375 21.8359 28.875 22.4805 29.175L23.5156 29.6625C23.6914 29.7375 23.7891 29.9062 23.7891 30.075V35.7375C23.7891 36 24.0039 36.225 24.2969 36.225H33.3203C33.5742 36.225 33.7891 36.4125 33.8086 36.6562L34.5898 46.125C34.668 47.0812 33.9258 47.925 32.9297 48H32.8125ZM14.1406 27.3V27.5437C14.1406 28.5937 13.5156 29.5687 12.5391 30.0187L10.8008 30.8437C10.3516 31.0687 9.86328 31.2375 9.35547 31.35L3.88672 32.6625C2.75391 32.925 1.95312 33.8625 1.89453 34.9875L0.976562 46.2C0.9375 46.6312 1.28906 47.025 1.73828 47.0625H32.8125C33.2812 47.0625 33.6523 46.7062 33.6523 46.2562V46.2L32.9102 37.1625H24.3359C23.5156 37.1625 22.8516 36.525 22.8516 35.7375V30.375L22.0898 30.0187C21.0938 29.55 20.4883 28.5937 20.4883 27.5437V27.3C18.457 28.1437 16.1523 28.1437 14.1406 27.3Z" fill="#2E2A2B"/>
<path d="M17.3051 33.9937C14.5902 33.9937 12.0707 32.6625 10.6449 30.4687C10.5082 30.2437 10.5668 29.9625 10.8012 29.8125C10.8207 29.8125 10.8402 29.7937 10.8402 29.7937L12.1097 29.1937C12.7543 28.8937 13.184 28.2562 13.1644 27.5625V26.55C13.1644 26.2875 13.3793 26.0812 13.6527 26.0812C13.7308 26.0812 13.8285 26.1 13.8871 26.1375C15.9965 27.3 18.5941 27.3 20.7035 26.1375C20.9379 26.0062 21.2308 26.0812 21.3676 26.3062C21.4066 26.3812 21.4262 26.4562 21.4262 26.5312V27.5437C21.4262 28.2375 21.8363 28.875 22.4808 29.175L23.516 29.6625C23.6918 29.7375 23.7894 29.9062 23.7894 30.075V30.5062C23.7894 30.6 23.7504 30.6937 23.6918 30.7875C22.2465 32.7937 19.8637 33.975 17.3051 33.9937ZM11.7777 30.375C14.0433 33.3 18.3793 33.9187 21.4262 31.725C21.9535 31.35 22.4418 30.8812 22.8324 30.375L22.0707 30.0187C21.0746 29.55 20.4691 28.5937 20.4691 27.5437V27.3C19.4734 27.7264 18.3954 27.9468 17.3051 27.9468C16.2148 27.9468 15.1367 27.7264 14.141 27.3V27.5437C14.141 28.5937 13.516 29.5687 12.5394 30.0187L11.7777 30.375Z" fill="black"/>
<path d="M43.8281 11.3812C46.9671 11.3812 49.5117 8.9384 49.5117 5.925C49.5117 2.9116 46.9671 0.46875 43.8281 0.46875C40.6892 0.46875 38.1445 2.9116 38.1445 5.925C38.1445 8.9384 40.6892 11.3812 43.8281 11.3812Z" fill="#07CC66"/>
<path d="M42.5787 8.15634L40.8404 6.48759C40.4498 6.13134 40.4498 5.53134 40.8208 5.15634C41.1919 4.78134 41.8169 4.78134 42.2076 5.13759L42.2271 5.15634L43.2818 6.16884L45.4888 4.05009C45.8599 3.67509 46.4849 3.67509 46.8755 4.03134C47.2662 4.38759 47.2662 4.98759 46.8951 5.36259L46.8755 5.38134L43.9849 8.15634C43.5748 8.53134 42.9693 8.53134 42.5787 8.15634Z" fill="#EDF4FC"/>
<path d="M43.8281 11.85C40.4297 11.85 37.6562 9.20625 37.6562 5.925C37.6562 2.64375 40.4297 0 43.8281 0C47.2266 0 50 2.64375 50 5.925C50 9.1875 47.2266 11.85 43.8281 11.85ZM43.8281 0.9375C40.957 0.9375 38.6328 3.16875 38.6328 5.925C38.6328 8.68125 40.957 10.9125 43.8281 10.9125C46.6992 10.9125 49.0234 8.68125 49.0234 5.925C49.0234 3.16875 46.6992 0.9375 43.8281 0.9375Z" fill="#2E2A2B"/>
<path d="M43.282 8.90622C42.8914 8.90622 42.5203 8.75622 42.2469 8.49372L40.5086 6.82498C39.9226 6.28123 39.9031 5.39997 40.4695 4.83747C41.0359 4.27497 41.9539 4.25623 42.5398 4.79998L42.5789 4.83747L43.282 5.51248L45.1375 3.73123C45.7039 3.16873 46.6219 3.14998 47.2078 3.69373C47.7937 4.23748 47.8133 5.11872 47.2469 5.68122L47.2078 5.71872L44.3172 8.49372C44.0437 8.75622 43.6726 8.90622 43.282 8.90622ZM42.9305 7.83747C43.0281 7.93122 43.1453 7.96872 43.282 7.96872C43.4187 7.96872 43.5359 7.91247 43.6336 7.83747L46.5242 5.06247C46.7195 4.87497 46.7195 4.57498 46.5242 4.40623C46.3289 4.23748 46.0359 4.23748 45.8406 4.40623L43.6336 6.52497C43.4383 6.71247 43.1258 6.71247 42.95 6.52497L41.8953 5.51248C41.7 5.34372 41.407 5.34372 41.2117 5.51248C41.0164 5.69998 41.0164 5.99998 41.2117 6.16873L42.9305 7.83747Z" fill="#2E2A2B"/>
<path d="M45.8984 37.1625H24.3164C23.4961 37.1625 22.832 36.525 22.832 35.7375V5.41871C22.832 4.63121 23.4961 3.99371 24.3164 3.99371H38.3594C38.6328 3.99371 38.8477 4.19996 38.8477 4.46246C38.8477 4.49996 38.8477 4.55621 38.8281 4.59371C38.0664 7.23746 39.668 9.99371 42.4414 10.725C43.8672 11.1 45.3906 10.8937 46.6406 10.125C46.875 9.99371 47.168 10.05 47.3242 10.275C47.3828 10.35 47.4023 10.4437 47.4023 10.5187V35.7562C47.3828 36.525 46.7188 37.1625 45.8984 37.1625ZM24.3164 4.93121C24.043 4.93121 23.8086 5.13746 23.8086 5.41871V35.7562C23.8086 36.0187 24.0234 36.2437 24.3164 36.2437H45.8984C46.1719 36.2437 46.4062 36.0375 46.4062 35.7562V11.3062C43.3203 12.675 39.6484 11.3812 38.2227 8.39996C37.6953 7.31246 37.5391 6.11246 37.7539 4.93121H24.3164Z" fill="#2E2A2B"/>
<path d="M7.48047 16.05C7.20703 16.05 6.99219 15.8438 6.99219 15.5813V12.3C6.99219 7.98754 10.6445 4.50004 15.1367 4.48129H17.3047C18.8086 4.48129 20.1953 5.17504 21.0938 6.31879C21.7969 6.00004 22.5781 5.85004 23.3398 5.88754C23.5938 5.90629 23.8086 6.11254 23.8086 6.35629V13.4438C23.8086 13.7063 23.5938 13.9125 23.3203 13.9125H23.2617C20.8008 13.6313 19.375 12.675 18.7305 12.075C15.8984 15.4313 11.7578 15 10.3906 14.7375V14.9625C10.3906 15.225 10.1758 15.4313 9.90234 15.4313H9.82422C9.6875 15.4125 9.55078 15.3938 9.41406 15.3938C8.82813 15.3938 8.24219 15.5813 7.79297 15.9375C7.71484 16.0125 7.59766 16.05 7.48047 16.05ZM15.1367 5.41879C11.1914 5.41879 7.98828 8.49379 7.96875 12.3V14.7563C8.41797 14.5688 8.90625 14.4563 9.41406 14.475C9.51172 14.0063 9.98047 13.725 10.4492 13.8188C11.9141 14.0813 15.5469 14.4375 18.0273 11.4375C18.3398 11.0625 18.8867 11.0063 19.2773 11.3063C19.2969 11.325 19.3164 11.3438 19.3555 11.3625C19.8438 11.8313 20.918 12.6 22.8516 12.9188V6.84379C22.2656 6.88129 21.6992 7.05004 21.2109 7.35004C20.9766 7.48129 20.6836 7.40629 20.5469 7.18129C19.8633 6.09379 18.6523 5.43754 17.3438 5.41879H15.1367Z" fill="black"/>
<path d="M17.3047 27.9375C12.9492 27.9375 9.41406 24.5438 9.41406 20.3625V14.625C9.41406 14.3625 9.53125 14.1188 9.74609 13.9688C9.96094 13.8 10.2344 13.7438 10.4883 13.8C11.9141 14.0813 15.5469 14.4375 18.0273 11.4375C18.3398 11.0625 18.8867 11.0063 19.2773 11.3063C19.2969 11.325 19.3164 11.3438 19.3555 11.3625C19.8828 11.8688 21.1133 12.75 23.3984 13.0125C23.6523 13.05 23.8281 13.2375 23.8281 13.4813V24.5063C23.8281 24.6 23.7891 24.6938 23.7305 24.7875C22.2461 26.7375 19.8438 27.9188 17.3047 27.9375ZM10.3906 14.7375V20.3438C10.3906 24.0188 13.4766 26.9813 17.3047 26.9813C19.4922 26.9813 21.543 25.9875 22.8516 24.3188V13.8563C20.6445 13.5188 19.3555 12.6375 18.75 12.075C15.8984 15.4313 11.7578 15 10.3906 14.7375ZM38.5742 13.7438H31.7383C31.4648 13.7438 31.25 13.5375 31.25 13.275C31.25 13.0125 31.4648 12.8063 31.7383 12.8063H38.5742C38.8477 12.8063 39.0625 13.0125 39.0625 13.275C39.0625 13.5375 38.8477 13.7438 38.5742 13.7438ZM42.5586 17.4938H29.9023C29.6289 17.4938 29.4141 17.2875 29.4141 17.025C29.4141 16.7625 29.6289 16.5563 29.9023 16.5563H42.5586C42.832 16.5563 43.0469 16.7625 43.0469 17.025C43.0469 17.2875 42.832 17.4938 42.5586 17.4938ZM42.5586 19.875H29.9023C29.6289 19.875 29.4141 19.6688 29.4141 19.4063C29.4141 19.1438 29.6289 18.9375 29.9023 18.9375H42.5586C42.832 18.9375 43.0469 19.1438 43.0469 19.4063C43.0469 19.6688 42.832 19.875 42.5586 19.875ZM42.5586 22.2563H29.9023C29.6289 22.2563 29.4141 22.05 29.4141 21.7875C29.4141 21.525 29.6289 21.3188 29.9023 21.3188H42.5586C42.832 21.3188 43.0469 21.525 43.0469 21.7875C43.0469 22.05 42.832 22.2563 42.5586 22.2563ZM42.5586 24.6375H29.9023C29.6289 24.6375 29.4141 24.4313 29.4141 24.1688C29.4141 23.9063 29.6289 23.7 29.9023 23.7H42.5586C42.832 23.7 43.0469 23.9063 43.0469 24.1688C43.0469 24.4125 42.832 24.6375 42.5586 24.6375ZM42.5586 27H29.9023C29.6289 27 29.4141 26.7938 29.4141 26.5313C29.4141 26.2688 29.6289 26.0625 29.9023 26.0625H42.5586C42.832 26.0625 43.0469 26.2688 43.0469 26.5313C43.0469 26.7938 42.832 27 42.5586 27ZM42.5586 29.3813H29.9023C29.6289 29.3813 29.4141 29.175 29.4141 28.9125C29.4141 28.65 29.6289 28.4438 29.9023 28.4438H42.5586C42.832 28.4438 43.0469 28.65 43.0469 28.9125C43.0469 29.175 42.832 29.3813 42.5586 29.3813ZM27.7148 17.4938H27.3438C27.0703 17.4938 26.8555 17.2875 26.8555 17.025C26.8555 16.7625 27.0703 16.5563 27.3438 16.5563H27.7148C27.9883 16.5563 28.2031 16.7625 28.2031 17.025C28.2031 17.2875 27.9883 17.4938 27.7148 17.4938ZM27.7148 19.875H27.3438C27.0703 19.875 26.8555 19.6688 26.8555 19.4063C26.8555 19.1438 27.0703 18.9375 27.3438 18.9375H27.7148C27.9883 18.9375 28.2031 19.1438 28.2031 19.4063C28.2031 19.6688 27.9883 19.875 27.7148 19.875ZM27.7148 22.2563H27.3438C27.0703 22.2563 26.8555 22.05 26.8555 21.7875C26.8555 21.525 27.0703 21.3188 27.3438 21.3188H27.7148C27.9883 21.3188 28.2031 21.525 28.2031 21.7875C28.2031 22.05 27.9883 22.2563 27.7148 22.2563ZM27.7148 24.6375H27.3438C27.0703 24.6375 26.8555 24.4313 26.8555 24.1688C26.8555 23.9063 27.0703 23.7 27.3438 23.7H27.7148C27.9883 23.7 28.2031 23.9063 28.2031 24.1688C28.2031 24.4125 27.9883 24.6375 27.7148 24.6375ZM27.7148 27H27.3438C27.0703 27 26.8555 26.7938 26.8555 26.5313C26.8555 26.2688 27.0703 26.0625 27.3438 26.0625H27.7148C27.9883 26.0625 28.2031 26.2688 28.2031 26.5313C28.2031 26.7938 27.9883 27 27.7148 27ZM27.7148 29.3813H27.3438C27.0703 29.3813 26.8555 29.175 26.8555 28.9125C26.8555 28.65 27.0703 28.4438 27.3438 28.4438H27.7148C27.9883 28.4438 28.2031 28.65 28.2031 28.9125C28.2031 29.175 27.9883 29.3813 27.7148 29.3813ZM6.44531 47.4375C6.17188 47.4375 5.95703 47.2313 5.95703 46.9688V39.75C5.95703 39.4875 6.17188 39.2813 6.44531 39.2813C6.71875 39.2813 6.93359 39.4875 6.93359 39.75V46.9688C6.93359 47.2313 6.71875 47.4375 6.44531 47.4375ZM28.3203 47.4375C28.0469 47.4375 27.832 47.2313 27.832 46.9688V39.75C27.832 39.4875 28.0469 39.2813 28.3203 39.2813C28.5938 39.2813 28.8086 39.4875 28.8086 39.75V46.9688C28.8086 47.2313 28.5938 47.4375 28.3203 47.4375Z" fill="#2E2A2B"/>
</svg>
