<svg width="30" height="28" viewBox="0 0 30 28" fill="none" xmlns="http://www.w3.org/2000/svg">
<path d="M29.359 26.733H15.2944C20.1702 23.0016 25.7778 17.2132 25.7778 10.7559C25.7778 4.82506 20.9429 0 15 0C9.05712 0 4.22224 4.82506 4.22224 10.7559C4.22224 17.277 9.67122 23.0431 14.6773 26.733H0.641026C0.286987 26.733 0 27.0167 0 27.3665C0 27.7163 0.286987 28 0.641026 28H29.359C29.713 28 30 27.7163 30 27.3665C30 27.0167 29.713 26.733 29.359 26.733ZM6.34615 10.2853C6.34615 5.55737 10.2283 1.71091 15 1.71091C19.7717 1.71091 23.6538 5.55737 23.6538 10.2853C23.6538 15.0132 19.7717 18.8596 15 18.8596C10.2283 18.8596 6.34615 15.0132 6.34615 10.2853Z" fill="url(#paint0_linear_2248_3663)" fill-opacity="0.8"/>
<path d="M17 15.4671H10V9H17V15.4671Z" fill="#ED1C24"/>
<path d="M19.0609 7.39038H13V8.08583H18.2702V12.7216H19.0609V7.39038Z" fill="#231F20"/>
<path d="M20.6399 6.00046H16.0918V6.69706H19.8479V9.99561H20.6399V6" fill="#231F20"/>
<defs>
<linearGradient id="paint0_linear_2248_3663" x1="-13.5" y1="67.9" x2="-31.7883" y2="0.467408" gradientUnits="userSpaceOnUse">
<stop offset="0.363869" stop-color="#FF5D50" stop-opacity="0.95"/>
<stop offset="0.591477" stop-color="#F7000B"/>
</linearGradient>
</defs>
</svg>
