<svg width="12" height="12" viewBox="0 0 25 26" fill="none" xmlns="http://www.w3.org/2000/svg">
<path d="M18.8412 20C16.5526 20 14.2914 19.4956 12.0576 18.4867C9.82391 17.4778 7.79159 16.047 5.96066 14.1944C4.12973 12.3419 2.71552 10.2863 1.71804 8.02778C0.720546 5.76926 0.221435 3.48222 0.220703 1.16667C0.220703 0.833334 0.330559 0.555556 0.55027 0.333333C0.769981 0.111111 1.04462 0 1.37419 0H5.82334C6.07967 0 6.30854 0.0881481 6.50994 0.264444C6.71134 0.440741 6.83035 0.648889 6.86697 0.888889L7.58103 4.77778C7.61765 5.07407 7.60849 5.32407 7.55357 5.52778C7.49864 5.73148 7.39794 5.90741 7.25146 6.05556L4.58746 8.77778C4.95365 9.46296 5.38831 10.1248 5.89145 10.7633C6.39459 11.4019 6.94863 12.0178 7.55357 12.6111C8.12115 13.1852 8.7162 13.7178 9.33872 14.2089C9.96124 14.7 10.6204 15.1489 11.3161 15.5556L13.8977 12.9444C14.0625 12.7778 14.2778 12.653 14.5437 12.57C14.8095 12.487 15.0703 12.4637 15.3259 12.5L19.1159 13.2778C19.3722 13.3519 19.5828 13.4863 19.7475 13.6811C19.9123 13.8759 19.9947 14.0933 19.9947 14.3333V18.8333C19.9947 19.1667 19.8849 19.4444 19.6651 19.6667C19.4454 19.8889 19.1708 20 18.8412 20Z" fill="#0A66C2"/>
</svg>
