<svg width="26" height="26" viewBox="0 0 26 26" fill="none" xmlns="http://www.w3.org/2000/svg">
<path fill-rule="evenodd" clip-rule="evenodd" d="M13.738 9.529V11.3674C14.1081 10.781 14.6184 10.3046 15.2188 9.98477C15.8191 9.66498 16.4891 9.51278 17.163 9.54308C20.7619 9.54308 21.54 11.8831 21.54 14.9273V21.125H18.2067V15.6303C18.2067 14.3195 17.9525 12.6338 15.99 12.6338C14.0869 12.6338 13.7619 14.0606 13.7619 15.5328V21.125H10.439V9.529H13.738ZM8.20671 6.61483C8.2063 6.95825 8.10842 7.29391 7.92534 7.57971C7.74226 7.86551 7.48212 8.08874 7.17755 8.22142C6.8731 8.35302 6.53788 8.38745 6.21456 8.32031C5.89124 8.25318 5.59444 8.08752 5.36192 7.84442C5.12897 7.60116 4.97037 7.29171 4.90608 6.95496C4.84179 6.61822 4.87466 6.26922 5.00058 5.95186C5.12649 5.6345 5.33982 5.36294 5.61374 5.17133C5.88766 4.97973 6.20994 4.87663 6.54005 4.875C6.75944 4.875 6.97668 4.92005 7.1793 5.00756C7.38192 5.09508 7.56593 5.22333 7.72077 5.38498C7.87562 5.54662 7.99826 5.73847 8.08164 5.94952C8.16503 6.16057 8.20754 6.38666 8.20671 6.61483Z" fill="#0077B5"/>
<path d="M8.20638 9.54309H4.87305V21.125H8.20638V9.54309Z" fill="#0077B5"/>
</svg>
