<svg width="16" height="16" viewBox="0 0 16 16" fill="none" xmlns="http://www.w3.org/2000/svg">
<path d="M10.3695 8.54539H0.509979C0.228471 8.54539 0 8.30102 0 7.99993C0 7.69885 0.228471 7.45448 0.509979 7.45448H10.3695C10.651 7.45448 10.8795 7.69885 10.8795 7.99993C10.8795 8.30102 10.651 8.54539 10.3695 8.54539Z" fill="black"/>
<path d="M7.64952 11.4545C7.5189 11.4545 7.38844 11.4015 7.28906 11.2946C7.08985 11.0816 7.08985 10.7361 7.28906 10.5229L9.6486 7.99938L7.28906 5.47575C7.08985 5.26268 7.08985 4.9171 7.28906 4.70404C7.48839 4.49097 7.81137 4.49097 8.01058 4.70404L10.7304 7.6132C10.9296 7.82627 10.9296 8.17171 10.7304 8.38478L8.01058 11.2938C7.96337 11.3449 7.90714 11.3854 7.84515 11.413C7.78316 11.4406 7.71666 11.4547 7.64952 11.4545Z" fill="black"/>
<path d="M8.16026 16C5.06564 16 2.33359 14.0088 1.19872 10.9265C1.09539 10.6472 1.22448 10.3302 1.48632 10.2196C1.74743 10.1106 2.04462 10.2465 2.14795 10.528C3.12782 13.1891 5.488 14.9091 8.16026 14.9091C11.7219 14.9091 14.62 11.8094 14.62 8C14.62 4.19064 11.7219 1.0909 8.16026 1.0909C5.48797 1.0909 3.12782 2.81088 2.14795 5.47197C2.04386 5.75349 1.74743 5.88944 1.48632 5.78039C1.22448 5.66983 1.09539 5.35279 1.19872 5.07352C2.33359 1.99124 5.06564 0 8.16026 0C12.2843 0 15.64 3.5891 15.64 8C15.64 12.4109 12.2843 16 8.16026 16Z" fill="black"/>
</svg>
