<svg width="54" height="52" viewBox="0 0 54 52" fill="none" xmlns="http://www.w3.org/2000/svg">
<path d="M43.8262 52H6.99023V0H43.8262V52Z" fill="#F4F4F4"/>
<path d="M3.48926 3.78967H6.97898V48.1985H3.48926V3.78967Z" fill="#E5E5E5"/>
<path d="M0 6.95758H3.48973V45.0307H0V6.95758Z" fill="#CCCACA"/>
<path d="M12.7744 39.3285H16.8027V47.3186H12.7744V39.3285Z" fill="#FA4968"/>
<path d="M19.8506 36.3718H23.8789V47.3186H19.8506V36.3718Z" fill="#596170"/>
<path d="M26.9268 40.8772H30.955V47.3303H26.9268V40.8772Z" fill="#6CD8D5"/>
<path d="M34.0029 33.7319H38.0312V47.3303H34.0029V33.7319Z" fill="#559AFF"/>
<path d="M25.5808 15.6751C25.5485 15.6751 25.5162 15.6751 25.4731 15.6634C25.3343 15.6304 25.2115 15.5426 25.1285 15.417L21.1325 8.91702L14.487 13.7862L13.8838 12.8123L20.9709 7.61467C21.0894 7.53254 21.2294 7.49734 21.3802 7.52081C21.5203 7.55601 21.6387 7.63814 21.7249 7.7672L25.7316 14.2672L34.8545 7.57947L35.4576 8.5533L25.8824 15.5695C25.7963 15.6399 25.6885 15.6751 25.5808 15.6751Z" fill="#616B77"/>
<path d="M23.0858 8.31936C23.1616 7.1754 22.3717 6.18107 21.3216 6.09847C20.2714 6.01587 19.3586 6.87627 19.2828 8.02023C19.207 9.16419 19.9968 10.1585 21.047 10.2411C22.0971 10.3237 23.0099 9.46332 23.0858 8.31936Z" fill="#596170"/>
<path d="M27.8035 14.9329C27.8794 13.7889 27.0895 12.7946 26.0394 12.712C24.9892 12.6294 24.0764 13.4898 24.0006 14.6338C23.9248 15.7777 24.7146 16.772 25.7648 16.8546C26.8149 16.9372 27.7277 16.0768 27.8035 14.9329Z" fill="#6CD8D5"/>
<path d="M37.0809 8.2499C37.1567 7.10594 36.3669 6.11162 35.3167 6.02901C34.2665 5.94641 33.3538 6.80681 33.2779 7.95077C33.2021 9.09473 33.9919 10.0891 35.0421 10.1717C36.0923 10.2543 37.005 9.39386 37.0809 8.2499Z" fill="#559AFF"/>
<path d="M16.3084 13.0003C16.3842 11.8563 15.5944 10.862 14.5442 10.7794C13.4941 10.6968 12.5813 11.5572 12.5055 12.7011C12.4296 13.8451 13.2195 14.8394 14.2696 14.922C15.3198 15.0046 16.2326 14.1442 16.3084 13.0003Z" fill="#FA4968"/>
<path d="M19.775 20.7319H25.9143V21.9052H19.775V20.7319ZM12.5586 20.7319H17.1362V21.9052H12.5586V20.7319ZM24.0941 23.4188H29.7703V24.592H24.0941V23.4188ZM12.5586 23.4188H21.3691V24.592H12.5586V23.4188ZM20.1735 26.1056H25.4835V27.2789H20.1735V26.1056ZM12.5586 26.1056H17.5024V27.2789H12.5586V26.1056ZM24.4603 28.7924H29.7703V29.9657H24.4603V28.7924ZM12.5586 28.7924H21.7568V29.9657H12.5586V28.7924ZM12.5586 31.4792H18.4071V32.6525H12.5586V31.4792Z" fill="#E5E5E5"/>
<path d="M46.8445 37.5456L44.7321 38.5095L41.9225 32.0028L44.0338 31.039L46.8445 37.5456Z" fill="#425060"/>
<path d="M45.3415 45.3099L42.2046 36.2972L46.8929 34.161L51.2896 42.6098C52.1951 44.3432 51.4825 46.4854 49.7519 47.2846C48.008 48.0608 45.9881 47.1566 45.3415 45.3099Z" fill="#616B77"/>
<path d="M49.3418 25.0872C50.3714 19.6305 46.9165 14.3265 41.625 13.2404C36.3335 12.1543 31.2092 15.6974 30.1796 21.1541C29.1501 26.6108 32.605 31.9149 37.8965 33.001C43.188 34.0871 48.3123 30.544 49.3418 25.0872Z" fill="#616B77"/>
<path d="M46.4696 24.4977C47.1905 20.6767 44.7712 16.9626 41.0659 16.2021C37.3606 15.4416 33.7724 17.9226 33.0515 21.7436C32.3305 25.5646 34.7498 29.2787 38.4551 30.0392C42.1604 30.7997 45.7486 28.3187 46.4696 24.4977Z" fill="white"/>
</svg>
