<svg width="51" height="52" viewBox="0 0 51 52" fill="none" xmlns="http://www.w3.org/2000/svg">
<path d="M21.1895 7.58307H23.7757V13.6795H21.1895V7.58307Z" fill="#51A37E"/>
<path d="M31.5352 12.8088H34.1214V18.9052H31.5352V12.8088Z" fill="#ED6445"/>
<path d="M41.8789 9.32501H44.4651V23.2597H41.8789V9.32501Z" fill="#51A37E"/>
<path d="M26.3613 9.32501H28.9475V21.5179H26.3613V9.32501Z" fill="#ED6445"/>
<path d="M36.707 12.8088H39.2932V26.7435H36.707V12.8088Z" fill="#51A37E"/>
<path d="M35.8452 8.45411C35.6495 8.45422 35.4596 8.3869 35.3069 8.26327L31.5181 5.20101L28.6041 7.40901C28.4613 7.51706 28.289 7.57776 28.1107 7.58275C27.9324 7.58774 27.757 7.53678 27.6086 7.43688L22.8525 4.23353L18.1276 6.62028L17.3564 5.06243L22.5289 2.44967C22.6648 2.38097 22.8163 2.34981 22.968 2.35936C23.1197 2.3689 23.2662 2.4188 23.3926 2.504L28.0575 5.64583L31.0179 3.40278C31.1708 3.28693 31.3575 3.2257 31.5486 3.22871C31.7397 3.23173 31.9244 3.29882 32.0737 3.41944L35.7814 6.41616L37.8221 4.35459C37.9837 4.19128 38.203 4.09953 38.4316 4.09952H42.385L46.4427 0L47.6619 1.2317L43.3516 5.58628C43.1899 5.74959 42.9706 5.84134 42.742 5.84135H38.7886L36.455 8.19904C36.375 8.27998 36.2799 8.34418 36.1753 8.38795C36.0706 8.43172 35.9585 8.4542 35.8452 8.45411Z" fill="#587FDF"/>
<path d="M43.2371 48.3846C43.1312 48.5993 42.968 48.7799 42.766 48.9061C42.5641 49.0323 42.3312 49.099 42.0938 49.0988C41.9561 49.0986 41.8193 49.0762 41.6886 49.0323L37.569 47.6454L31.4548 49.1902C31.2311 49.2471 31.0045 49.2911 30.7759 49.3219C30.4746 49.3655 30.1707 49.3873 29.8664 49.3872C28.7884 49.3872 27.7271 49.1183 26.7767 48.6044C25.8263 48.0905 25.0161 47.3475 24.4181 46.4414L22.236 43.1351L21.9192 42.655L19.4655 38.9362V52H2.22418V42.7367L1.9925 42.4602C1.2154 41.5322 0.717157 40.399 0.556502 39.1944C0.395848 37.9897 0.579484 36.7638 1.08576 35.6611C1.59203 34.5584 2.39984 33.6249 3.41393 32.9707C4.42802 32.3166 5.60611 31.9689 6.8093 31.9689H9.12072L10.8449 30.2271H16.0173L17.7414 31.9689H20.6552C21.352 31.9688 22.0385 32.1395 22.6558 32.4661C23.273 32.7928 23.8027 33.2658 24.1994 33.8446L27.5183 38.688L30.6724 43.2908H38.0841C38.7304 43.2907 39.3685 43.4376 39.951 43.7204C40.5336 44.0033 41.0457 44.4149 41.4494 44.9249L43.0927 46.9998C43.2451 47.1926 43.3398 47.4255 43.3653 47.6709C43.3909 47.9163 43.3464 48.164 43.2371 48.3846Z" fill="#FFCEB6"/>
<path d="M30.3295 47.2546L28.6635 45.1513C27.9206 44.2123 26.9499 43.4834 25.8456 43.0355C24.7414 42.5876 23.5413 42.4359 22.3618 42.5952L21.9189 42.6551L22.2358 43.1351L24.4179 46.4414C25.0158 47.3475 25.826 48.0905 26.7764 48.6044C27.7269 49.1183 28.7881 49.3872 29.8661 49.3872C30.1704 49.3873 30.4744 49.3655 30.7756 49.3219C30.8658 48.966 30.8724 48.5938 30.7949 48.2349C30.7175 47.876 30.5581 47.5403 30.3295 47.2546Z" fill="#FFB089"/>
<path d="M27.5183 38.688L22.236 43.1351L19.4655 38.9362V52H2.22418V42.7367L1.9925 42.4602C1.2154 41.5322 0.717157 40.399 0.556502 39.1944C0.395848 37.9897 0.579484 36.7638 1.08576 35.6611C1.59203 34.5584 2.39984 33.6249 3.41393 32.9707C4.42802 32.3166 5.60611 31.9689 6.8093 31.9689H9.12072L10.8449 30.2271H16.0173L17.7414 31.9689H20.6552C21.352 31.9688 22.0385 32.1395 22.6558 32.4661C23.273 32.7928 23.8027 33.2658 24.1994 33.8446L27.5183 38.688Z" fill="#ED6445" fill-opacity="0.85"/>
<path d="M18.6033 19.776V26.6649C18.6034 27.3651 18.3333 28.0377 17.8504 28.54C17.3675 29.0422 16.7099 29.3346 16.0171 29.355V30.227L15.4234 31.0271L13.4309 33.7107L10.8447 30.227V19.776H18.6033Z" fill="#FFCEB6"/>
<path d="M9.2942 23.0872C8.97961 22.6105 8.79536 22.0582 8.76012 21.4863C8.72489 20.9145 8.83992 20.3434 9.09356 19.8309C9.36074 19.291 9.77146 18.837 10.2797 18.5196C10.7879 18.2023 11.3736 18.0342 11.971 18.0342H17.9625C18.1599 18.0342 18.3553 18.0734 18.5377 18.1497C18.7201 18.226 18.8858 18.3379 19.0253 18.4789C19.1649 18.6199 19.2756 18.7873 19.3511 18.9715C19.4267 19.1558 19.4655 19.3532 19.4655 19.5526C19.4655 19.8713 19.3663 20.1818 19.1819 20.4403C18.9975 20.6988 18.7372 20.8921 18.4381 20.9929L16.8793 21.5179L12.569 20.6469V22.3888L10.3276 24.6532L9.2942 23.0872Z" fill="#B36F42"/>
<path d="M16.0169 29.3549V30.227L15.4231 31.0271C14.8561 30.8922 14.3508 30.5677 13.9892 30.1063C13.6275 29.6449 13.4307 29.0736 13.4307 28.4851V27.6142L13.5567 27.8679C13.7776 28.3152 14.1176 28.6915 14.5385 28.9544C14.9593 29.2172 15.4445 29.3564 15.9393 29.356C15.9651 29.356 15.991 29.356 16.0169 29.3549Z" fill="#FFB089"/>
<path d="M8.61818 37.3206C8.32069 36.9451 7.77819 36.8843 7.40646 37.1848C7.03474 37.4854 6.97456 38.0334 7.27205 38.409L9.66931 41.4352C9.9668 41.8108 10.5093 41.8716 10.881 41.571C11.2527 41.2705 11.3129 40.7224 11.0154 40.3469L8.61818 37.3206Z" fill="#DE402F" fill-opacity="0.9"/>
<path d="M3.4403 42.8328C3.13268 42.4657 2.58872 42.42 2.22534 42.7308C1.86196 43.0416 1.81676 43.5911 2.12439 43.9582L4.01917 46.2194C4.3268 46.5865 4.87075 46.6322 5.23413 46.3214C5.59751 46.0106 5.64271 45.4611 5.33509 45.094L3.4403 42.8328Z" fill="#DE402F" fill-opacity="0.9"/>
<path d="M13.4314 39.8071C13.2028 39.8071 12.9835 39.7153 12.8218 39.552C12.6602 39.3886 12.5693 39.1671 12.5693 38.9361V33.7106H14.2935V38.9361C14.2935 39.1671 14.2026 39.3886 14.041 39.552C13.8793 39.7153 13.66 39.8071 13.4314 39.8071Z" fill="#DE402F" fill-opacity="0.9"/>
<path d="M12.5698 23.2597H10.8734C10.606 23.2597 10.3439 23.3349 10.1165 23.4769C9.88901 23.619 9.70519 23.8222 9.5856 24.0638C9.45046 24.3369 9.40378 24.646 9.45219 24.9473C9.5006 25.2487 9.64163 25.527 9.85532 25.7429L10.8456 26.7434H12.5698V23.2597Z" fill="#FFCEB6"/>
<path d="M13.4314 33.7107L10.8452 36.3235L9.12109 31.9689L10.8452 30.2271L13.4314 33.7107ZM16.0176 30.2271L17.7418 31.9689L16.0176 36.3235L13.4314 33.7107L16.0176 30.2271Z" fill="#F79A7E"/>
<path d="M13.6377 49.3871H34.1208V51.9999H13.6377V49.3871Z" fill="#BABCC2"/>
<path d="M44.4662 51.9999L50.5007 39.8071H37.5696L31.5352 51.9999H44.4662Z" fill="#6E7E9B"/>
<path d="M13.9611 45.4838L22.5897 44.3215C23.3704 44.2163 24.1645 44.2924 24.9116 44.544C25.8586 44.8629 26.6941 45.4515 27.3176 46.239L28.9832 48.3423C29.0581 48.4369 29.105 48.5509 29.1185 48.6713C29.1321 48.7916 29.1117 48.9134 29.0598 49.0226C29.0078 49.1318 28.9264 49.2239 28.8249 49.2884C28.7234 49.3529 28.606 49.3871 28.4861 49.3872H25.5003L23.7762 48.5162L16.5645 51.4305C15.6337 51.8067 14.6403 51.9999 13.6378 51.9999C12.4926 51.9999 11.3612 51.7477 10.3223 51.2609C9.2834 50.7741 8.36201 50.0644 7.62229 49.1812L5.23242 46.3278L10.8707 41.5811L13.9611 45.4838Z" fill="#FFCEB6"/>
<path d="M11.5762 44.9167L12.9827 44.7273C13.0949 44.7123 13.209 44.7196 13.3183 44.7491C13.4277 44.7785 13.5303 44.8294 13.6202 44.8988C13.7101 44.9683 13.7855 45.055 13.8423 45.1539C13.899 45.2529 13.9359 45.3621 13.9509 45.4755C13.9658 45.5888 13.9585 45.704 13.9294 45.8145C13.9002 45.925 13.8499 46.0286 13.7811 46.1194C13.7123 46.2102 13.6265 46.2865 13.5286 46.3438C13.4307 46.4011 13.3225 46.4384 13.2103 46.4535L11.8038 46.6427C11.6916 46.6578 11.5775 46.6504 11.4682 46.621C11.3588 46.5916 11.2562 46.5407 11.1663 46.4712C11.0764 46.4017 11.001 46.3151 10.9442 46.2161C10.8875 46.1172 10.8506 46.0079 10.8357 45.8946C10.8055 45.6657 10.8666 45.4341 11.0055 45.2507C11.1443 45.0673 11.3496 44.9472 11.5762 44.9167Z" fill="#FFB089"/>
</svg>
