<svg width="24" height="24" viewBox="0 0 24 24" fill="none" xmlns="http://www.w3.org/2000/svg">
<path d="M16.1753 14C16.2544 13.34 16.3137 12.68 16.3137 12C16.3137 11.32 16.2544 10.66 16.1753 10H19.5171C19.6753 10.64 19.7741 11.31 19.7741 12C19.7741 12.69 19.6753 13.36 19.5171 14M14.4253 19.56C15.0185 18.45 15.4733 17.25 15.7897 16H18.7064C17.7485 17.6683 16.2288 18.932 14.4253 19.56ZM14.1781 14H9.55099C9.45212 13.34 9.39279 12.68 9.39279 12C9.39279 11.32 9.45212 10.65 9.55099 10H14.1781C14.2671 10.65 14.3363 11.32 14.3363 12C14.3363 12.68 14.2671 13.34 14.1781 14ZM11.8645 19.96C11.0439 18.76 10.3815 17.43 9.97613 16H13.753C13.3476 17.43 12.6852 18.76 11.8645 19.96ZM7.90974 8H5.02274C5.97055 6.32703 7.48921 5.06124 9.29392 4.44C8.7007 5.55 8.25579 6.75 7.90974 8ZM5.02274 16H7.90974C8.25579 17.25 8.7007 18.45 9.29392 19.56C7.49277 18.9323 5.97613 17.6682 5.02274 16ZM4.212 14C4.05381 13.36 3.95494 12.69 3.95494 12C3.95494 11.31 4.05381 10.64 4.212 10H7.55381C7.47471 10.66 7.41539 11.32 7.41539 12C7.41539 12.68 7.47471 13.34 7.55381 14M11.8645 4.03C12.6852 5.23 13.3476 6.57 13.753 8H9.97613C10.3815 6.57 11.0439 5.23 11.8645 4.03ZM18.7064 8H15.7897C15.4798 6.76161 15.0216 5.56611 14.4253 4.44C16.2445 5.07 17.7572 6.34 18.7064 8ZM11.8645 2C6.39703 2 1.97754 6.5 1.97754 12C1.97754 14.6522 3.0192 17.1957 4.87338 19.0711C5.79147 19.9997 6.8814 20.7362 8.08095 21.2388C9.2805 21.7413 10.5662 22 11.8645 22C14.4867 22 17.0015 20.9464 18.8557 19.0711C20.7099 17.1957 21.7516 14.6522 21.7516 12C21.7516 10.6868 21.4958 9.38642 20.9989 8.17317C20.5021 6.95991 19.7738 5.85752 18.8557 4.92893C17.9376 4.00035 16.8477 3.26375 15.6481 2.7612C14.4486 2.25866 13.1629 2 11.8645 2Z" fill="#0A66C2"/>
</svg>
